<?xml version="1.0" encoding="UTF-8"?>
<svg xmlns="http://www.w3.org/2000/svg" xmlns:xlink="http://www.w3.org/1999/xlink" width="32px" height="32px" viewBox="0 0 32 32" version="1.1">
<g id="surface1">
<path style=" stroke:none;fill-rule:nonzero;fill:rgb(100%,75.686275%,2.745098%);fill-opacity:1;" d="M 29.074219 13.386719 L 28 13.386719 L 28 13.332031 L 16 13.332031 L 16 18.667969 L 23.535156 18.667969 C 22.4375 21.769531 19.480469 24 16 24 C 11.582031 24 8 20.417969 8 16 C 8 11.582031 11.582031 8 16 8 C 18.039062 8 19.894531 8.769531 21.308594 10.027344 L 25.078125 6.253906 C 22.699219 4.035156 19.511719 2.667969 16 2.667969 C 8.636719 2.667969 2.667969 8.636719 2.667969 16 C 2.667969 23.363281 8.636719 29.332031 16 29.332031 C 23.363281 29.332031 29.332031 23.363281 29.332031 16 C 29.332031 15.105469 29.242188 14.234375 29.074219 13.386719 Z M 29.074219 13.386719 "/>
<path style=" stroke:none;fill-rule:nonzero;fill:rgb(100%,23.921569%,0%);fill-opacity:1;" d="M 4.203125 9.792969 L 8.585938 13.007812 C 9.769531 10.070312 12.640625 8 16 8 C 18.039062 8 19.894531 8.769531 21.308594 10.027344 L 25.078125 6.253906 C 22.699219 4.035156 19.511719 2.667969 16 2.667969 C 10.878906 2.667969 6.4375 5.558594 4.203125 9.792969 Z M 4.203125 9.792969 "/>
<path style=" stroke:none;fill-rule:nonzero;fill:rgb(29.803922%,68.627451%,31.372549%);fill-opacity:1;" d="M 16 29.332031 C 19.445312 29.332031 22.574219 28.015625 24.9375 25.871094 L 20.8125 22.378906 C 19.472656 23.394531 17.808594 24 16 24 C 12.53125 24 9.585938 21.789062 8.476562 18.703125 L 4.128906 22.050781 C 6.335938 26.371094 10.816406 29.332031 16 29.332031 Z M 16 29.332031 "/>
<path style=" stroke:none;fill-rule:nonzero;fill:rgb(9.803922%,46.27451%,82.352941%);fill-opacity:1;" d="M 29.074219 13.386719 L 28 13.386719 L 28 13.332031 L 16 13.332031 L 16 18.667969 L 23.535156 18.667969 C 23.007812 20.15625 22.046875 21.445312 20.8125 22.378906 L 24.9375 25.871094 C 24.648438 26.136719 29.332031 22.667969 29.332031 16 C 29.332031 15.105469 29.242188 14.234375 29.074219 13.386719 Z M 29.074219 13.386719 "/>
</g>
</svg>
